<?xml version="1.0" encoding="UTF-8" standalone="no"?>
<!-- Uploaded to: SVG Repo, www.svgrepo.com, Generator: SVG Repo Mixer Tools -->

<svg
   fill="#000000"
   width="800px"
   height="800px"
   viewBox="0 0 32 32"
   version="1.1"
   id="svg1"
   sodipodi:docname="window-svgrepo-com.svg"
   inkscape:version="1.4.3 (0d15f75042, 2025-12-25)"
   xmlns:inkscape="http://www.inkscape.org/namespaces/inkscape"
   xmlns:sodipodi="http://sodipodi.sourceforge.net/DTD/sodipodi-0.dtd"
   xmlns="http://www.w3.org/2000/svg"
   xmlns:svg="http://www.w3.org/2000/svg"
   xmlns:rdf="http://www.w3.org/1999/02/22-rdf-syntax-ns#"
   xmlns:cc="http://creativecommons.org/ns#"
   xmlns:dc="http://purl.org/dc/elements/1.1/">
  <defs
     id="defs1" />
  <sodipodi:namedview
     id="namedview1"
     pagecolor="#000000"
     bordercolor="#000000"
     borderopacity="0.25"
     inkscape:showpageshadow="2"
     inkscape:pageopacity="0.0"
     inkscape:pagecheckerboard="0"
     inkscape:deskcolor="#d1d1d1"
     inkscape:zoom="0.4125"
     inkscape:cx="398.78788"
     inkscape:cy="400"
     inkscape:window-width="1904"
     inkscape:window-height="946"
     inkscape:window-x="0"
     inkscape:window-y="0"
     inkscape:window-maximized="1"
     inkscape:current-layer="svg1"
     inkscape:export-bgcolor="#00000000" />
  <title
     id="title1">window</title>
  <path
     d="m 0,26.016 q 0,2.496 1.76,4.224 1.76,1.728 4.256,1.76 h 20 Q 28.48,32 30.24,30.24 32,28.48 32,26.016 v -20 Q 32,3.52 30.24,1.76 28.48,0 26.016,0 h -20 Q 3.52,0 1.76,1.76 0,3.52 0,6.016 Z m 4,0 V 12 h 24 v 14.016 q 0,0.832 -0.576,1.408 Q 26.848,28 26.016,28 h -20 Q 5.184,28 4.576,27.424 3.968,26.848 4,26.016 Z m 0,-16 v -4 Q 4,5.184 4.576,4.608 5.152,4.032 6.016,4 h 20 q 0.8,0 1.408,0.608 0.608,0.608 0.576,1.408 v 4 z M 6.016,8 H 8 V 6.016 H 6.016 Z m 4,0 H 12 V 6.016 h -1.984 z m 4,0 h 12 V 6.016 h -12 z"
     id="path1"
     inkscape:label="path1"
     style="stroke-width:1;stroke-dasharray:none;fill:#ffffff;fill-opacity:1"
     inkscape:highlight-color="#ffffff" />
  <metadata
     id="metadata1">
    <rdf:RDF>
      <cc:Work
         rdf:about="">
        <dc:title>window</dc:title>
      </cc:Work>
    </rdf:RDF>
  </metadata>
</svg>
